<?xml version="1.0" encoding="utf-8"?>
<!-- Generator: Adobe Illustrator 19.1.0, SVG Export Plug-In . SVG Version: 6.00 Build 0)  -->
<svg version="1.1" id="Layer_1" xmlns="http://www.w3.org/2000/svg" xmlns:xlink="http://www.w3.org/1999/xlink" x="0px" y="0px"
	 viewBox="0 0 124 46" enable-background="new 0 0 124 46" xml:space="preserve">
<g>
	<path fill="none" d="M20.1,27.2c0,1.6,1.1,2.9,3.4,2.9c4.4,0,4.9-3.8,4.9-4.5v-2.5c-0.8,0.9-2.9,0.8-4.7,1
		C21.4,24.4,20.1,25.2,20.1,27.2z"/>
	<path fill="none" d="M70.8,18c-3.2,0-4.7,2.8-4.7,5.6c0,3.1,1.6,5.6,4.7,5.6c3.2,0,4.8-2.7,4.8-5.6C75.6,20.7,74,18,70.8,18z"/>
	<path fill="#EF5523" d="M97.8,23.5c-1.1,0-2,0.8-2,1.9c0,1.1,0.8,2,2,2c1.2,0,2.1-0.9,2.1-2C99.9,24.4,99.1,23.5,97.8,23.5z"/>
	<path fill="#EF5523" d="M82.6,26.8c0.4,0.5,1,0.6,1.7,0.6c1.2,0,1.9-0.4,1.9-1.6c0-1.3-1-1.5-1.9-1.5c-0.6,0-0.9,0.1-1.2,0.1v-2.8
		c0.3,0,0.6,0.1,1.2,0.1c0.9,0,2-0.2,2-1.3c0-0.9-1-1.3-1.9-1.3c-1.1,0-2,0.6-2,1.8h-3.6c-0.1,0.6-0.1,1.3-0.1,1.9
		c0,0.7,0,1.5,0.1,2.2H82C82,25.9,82.2,26.4,82.6,26.8z"/>
	<path fill="#EF5523" d="M100.3,1.3c-10.4,0-19,7.3-21.1,17c0.3-0.5,0.7-0.9,1.1-1.2c1.1-0.8,2.6-1.2,4.2-1.2c4.2,0,5.6,2.5,5.6,3.7
		c0,3-1.9,3-1.9,3.1v0c0,0.2,2.4,0.2,2.4,3.4c0,1.8-1.3,4.6-6.1,4.6c-2.3,0-3.8-0.6-4.8-1.4c2.7,8.8,10.9,15.1,20.6,15.1
		c11.9,0,21.6-9.7,21.6-21.6C121.9,11,112.2,1.3,100.3,1.3z M97.8,30.7c-4.4,0-6.2-3.3-6.2-6.9c0-4.6,2.1-7.9,6.5-7.9
		c3.1,0,5,1.2,5.4,4h-3.8c-0.1-0.3-0.3-0.6-0.6-0.8c-0.3-0.2-0.7-0.2-1.1-0.2c-1.6,0-2.4,1.5-2.5,3c1-0.9,2-1.1,3.3-1.1
		c2.8,0,4.8,1.8,4.8,4.6C103.8,28.9,101.3,30.7,97.8,30.7z M111.1,30.7c-2.6,0-6.2-1.8-6.2-7.4c0-5.6,3.5-7.4,6.1-7.4
		c2.6,0,6.2,1.8,6.2,7.4C117.2,28.9,113.7,30.7,111.1,30.7z"/>
	<path fill="#EF5523" d="M111.1,19.1c-2.1,0-2.2,2.7-2.2,4.2c0,1.5,0.1,4.2,2.2,4.2c2.1,0,2.2-2.7,2.2-4.2
		C113.3,21.8,113.2,19.1,111.1,19.1z"/>
	<path fill="#333333" d="M10.6,30C5.8,30,3,26.1,3,21.5c0-4.7,2.8-8.6,7.6-8.6c3,0,5.7,1.8,6.2,4.9h1.1c0-0.3-0.9-5.9-7.3-5.9
		c-5.5,0-8.7,4.2-8.7,9.5c0,5.3,3.2,9.5,8.7,9.5c4,0,7.2-3.2,7.6-7.5h-1.1C16.9,26.9,14.1,30,10.6,30z"/>
	<path fill="#333333" d="M29.4,28.1v-7.6c0-2.7-2.3-3.4-4.6-3.4c-3.1,0-4.9,1.5-5,4.3h1c0.1-2.3,1.7-3.5,4-3.5c3,0,3.7,2,3.7,2.6
		c0,2.1-0.2,2.4-4.5,2.7c-2.2,0.2-4.8,0.8-4.8,3.9c0,2.8,1.9,3.7,4.4,3.7c2.5,0,4.3-1.4,4.9-2.9h0.1v0.7c0,1.1,0.2,1.9,1.8,1.9
		c0.3,0,0.5-0.1,0.8-0.1v-0.8c-0.3,0.1-0.5,0.1-0.7,0.1C29.4,29.7,29.4,28.9,29.4,28.1z M28.4,25.6c0,0.7-0.5,4.5-4.9,4.5
		c-2.3,0-3.4-1.3-3.4-2.9c0-2,1.3-2.8,3.6-3c1.9-0.3,4-0.2,4.7-1V25.6z"/>
	<path fill="#333333" d="M37.2,23.4c-2.1-0.5-4.4-0.8-4.4-2.9c0-1.9,2-2.5,3.8-2.5c2.2,0,3.9,1,3.9,3.3h1c0-3-2.1-4.2-4.9-4.2
		c-2.2,0-4.7,0.8-4.7,3.4c0,2.7,2.2,3.3,4.5,3.7c2.2,0.5,4.5,0.8,4.5,3c0,2.3-2.5,2.8-4.2,2.8c-2.4,0-4.2-1.4-4.3-3.8h-1
		c0.1,3.1,2.3,4.7,5.3,4.7c2.3,0,5.1-0.8,5.1-3.6C41.8,24.5,39.8,23.9,37.2,23.4z"/>
	<path fill="#333333" d="M45.5,13.4h-1v4.1h-2.4v0.8h2.4v9.2c-0.1,3,1.8,3.2,3.8,3.1v-0.8c-1.8,0.1-2.8-0.2-2.8-2.3v-9.2h2.9v-0.8
		h-2.9V13.4z"/>
	<rect x="49.7" y="17.4" fill="#333333" width="1" height="13.1"/>
	<rect x="49.7" y="12.3" fill="#333333" width="1" height="2.6"/>
	<path fill="#333333" d="M58.9,17.1c-2,0-4,1.1-4.7,3.1h-0.1v-2.8h-1v13.1h1v-7.1c0-3.2,1.8-5.5,4.7-5.5c3.6,0,3.7,2.9,3.7,4.3v8.3
		h1v-8.1C63.5,20.8,63.5,17.1,58.9,17.1z"/>
	<path fill="#333333" d="M75.6,20.2L75.6,20.2c-0.8-2-2.8-3-4.8-3c-3.7,0-5.7,3-5.7,6.5c0,3.7,1.8,6.5,5.7,6.5c2.2,0,3.8-1,4.7-3
		h0.1v3c0,0.9-0.1,4.6-4.7,4.6c-2.1,0-4-0.9-4.2-3.2h-1c0.2,3,2.3,4.1,5.1,4.1c5.7,0.2,5.7-4.7,5.7-5.7V17.4h-1V20.2z M70.8,29.2
		c-3.1,0-4.7-2.6-4.7-5.6c0-2.8,1.5-5.6,4.7-5.6c3.2,0,4.8,2.7,4.8,5.6C75.6,26.6,74,29.2,70.8,29.2z"/>
</g>
</svg>
